<?xml version="1.0" encoding="utf-8"?>
<!-- Generator: Adobe Illustrator 16.0.0, SVG Export Plug-In . SVG Version: 6.00 Build 0)  -->
<!DOCTYPE svg PUBLIC "-//W3C//DTD SVG 1.1//EN" "http://www.w3.org/Graphics/SVG/1.1/DTD/svg11.dtd">
<svg version="1.1" id="Layer_1" xmlns="http://www.w3.org/2000/svg" xmlns:xlink="http://www.w3.org/1999/xlink" x="0px" y="0px"
	 width="1643.672px" height="1643.672px" viewBox="0 0 1643.672 1643.672" enable-background="new 0 0 1643.672 1643.672"
	 xml:space="preserve">
<g>
	<g>
		<path fill="#FFFFFF" d="M1148.199,1490.149H495.471c-36.693,0-70.884-19.74-89.23-51.517L79.877,873.354
			c-18.348-31.777-18.348-71.258,0-103.035L406.24,205.039c18.347-31.776,52.537-51.517,89.23-51.517h652.729
			c36.695,0,70.885,19.74,89.23,51.517l326.365,565.279c18.346,31.777,18.346,71.258,0,103.035l-326.365,565.279
			C1219.084,1470.409,1184.895,1490.149,1148.199,1490.149z M495.471,207.441c-17.492,0-33.789,9.41-42.535,24.558L126.572,797.278
			c-8.746,15.147-8.746,33.968,0,49.115l326.363,565.279c8.746,15.147,25.043,24.558,42.535,24.558h652.729
			c17.492,0,33.79-9.41,42.535-24.558l326.364-565.279c8.745-15.147,8.745-33.968,0-49.115l-326.364-565.279
			c-8.745-15.147-25.043-24.558-42.535-24.558H495.471z"/>
	</g>
	<g>
		<path fill="#FFFFFF" d="M553.433,386.014c62.069-21.975,113.935-37.635,155.593-47c41.66-9.348,86.181-14.039,133.563-14.039
			h31.855c90.664,0,165.398,28.975,224.205,86.886c54.727,53.867,82.1,116.28,82.1,187.238v2.46
			c0,64.454-14.65,120.345-43.949,167.649c-36.623,57.931-96.041,104.035-178.235,138.292
			c56.157,98.732,112.313,197.445,168.47,296.157l2.439,14.687c0,11.427-3.262,20.411-9.766,26.935
			c-40.703,32.618-83.833,57.092-129.402,73.419h-21.976c-15.47,0-24.415-4.081-26.857-12.207
			c-31.741-43.949-66.343-99.686-103.766-167.249c-32.562-58.598-64.702-117.596-96.443-177.015
			c-17.911,83.834-40.706,165.227-68.364,244.158c-2.441,8.146-6.715,15.87-12.818,23.195c-6.104,7.324-12.418,10.986-18.922,10.986
			l-19.533,2.442c-25.236,0-47-2.022-65.313-6.104c-18.311-4.063-42.938-11.787-73.857-23.195
			c-13.028-3.242-19.533-13.009-19.533-29.298l2.441-7.325c7.325-38.245,21.975-99.686,43.949-184.34
			c21.975-84.635,42.309-160.724,61.039-228.287c6.505-23.596,26.037-91.96,58.598-205.093
			c-26.857,5.702-53.715,11.406-80.572,17.091l-19.533,4.883c-14.648,0-21.973-8.125-21.973-24.416
			c0-30.92,5.092-65.922,15.317-104.988C532.393,412.871,542.808,390.896,553.433,386.014z M709.521,544.717l90.339,24.415
			c6.506,1.641,13.427,6.104,20.753,13.429c7.324,7.324,10.987,15.871,10.987,25.638c-2.442,15.47-7.744,39.484-15.87,72.026
			c-8.144,32.561-13.43,57.377-15.87,74.468l14.649,2.441c34.183,0,68.363-16.672,102.547-50.053
			c34.181-33.362,51.272-65.502,51.272-96.442v-4.883c0-25.218-12.207-43.338-36.623-54.325
			c-24.415-10.987-55.356-16.481-92.779-16.481c-19.534,0-39.886,1.031-61.042,3.053
			C756.713,540.043,733.938,542.274,709.521,544.717z"/>
	</g>
</g>
</svg>
